<mxfile host="Electron" agent="Mozilla/5.0 (Windows NT 10.0; Win64; x64) AppleWebKit/537.36 (KHTML, like Gecko) draw.io/26.2.2 Chrome/134.0.6998.178 Electron/35.1.2 Safari/537.36" version="26.2.2">
  <diagram name="Page-1" id="RPAHAUUc83rnaPYJWtgx">
    <mxGraphModel dx="859" dy="622" grid="1" gridSize="10" guides="1" tooltips="1" connect="1" arrows="1" fold="1" page="1" pageScale="1" pageWidth="980" pageHeight="690" math="0" shadow="0">
      <root>
        <mxCell id="0" />
        <mxCell id="1" parent="0" />
        <mxCell id="oMwadAGXbxI2ktU8_ka5-1" value="" style="rounded=0;whiteSpace=wrap;html=1;fillColor=#0099CC;" parent="1" vertex="1">
          <mxGeometry x="80" y="80" width="40" height="40" as="geometry" />
        </mxCell>
        <mxCell id="oMwadAGXbxI2ktU8_ka5-2" value="" style="rounded=0;whiteSpace=wrap;html=1;fillColor=#0099CC;" parent="1" vertex="1">
          <mxGeometry x="120" y="80" width="40" height="40" as="geometry" />
        </mxCell>
        <mxCell id="oMwadAGXbxI2ktU8_ka5-3" value="" style="rounded=0;whiteSpace=wrap;html=1;fillColor=#0099CC;" parent="1" vertex="1">
          <mxGeometry x="160" y="80" width="40" height="40" as="geometry" />
        </mxCell>
        <mxCell id="oMwadAGXbxI2ktU8_ka5-4" value="" style="rounded=0;whiteSpace=wrap;html=1;fillColor=#0099CC;" parent="1" vertex="1">
          <mxGeometry x="200" y="80" width="40" height="40" as="geometry" />
        </mxCell>
        <mxCell id="oMwadAGXbxI2ktU8_ka5-5" value="" style="rounded=0;whiteSpace=wrap;html=1;fillColor=#0099CC;" parent="1" vertex="1">
          <mxGeometry x="240" y="80" width="40" height="40" as="geometry" />
        </mxCell>
        <mxCell id="oMwadAGXbxI2ktU8_ka5-6" value="" style="rounded=0;whiteSpace=wrap;html=1;fillColor=#0099CC;" parent="1" vertex="1">
          <mxGeometry x="280" y="80" width="40" height="40" as="geometry" />
        </mxCell>
        <mxCell id="oMwadAGXbxI2ktU8_ka5-7" value="" style="rounded=0;whiteSpace=wrap;html=1;fillColor=#0099CC;" parent="1" vertex="1">
          <mxGeometry x="320" y="80" width="40" height="40" as="geometry" />
        </mxCell>
        <mxCell id="lD7dmMBgW5OX4fXP0UKc-1" value="" style="rounded=0;whiteSpace=wrap;html=1;fillColor=#0099CC;" vertex="1" parent="1">
          <mxGeometry x="80" y="120" width="40" height="40" as="geometry" />
        </mxCell>
        <mxCell id="lD7dmMBgW5OX4fXP0UKc-2" value="" style="rounded=0;whiteSpace=wrap;html=1;fillColor=#0099CC;" vertex="1" parent="1">
          <mxGeometry x="120" y="120" width="40" height="40" as="geometry" />
        </mxCell>
        <mxCell id="lD7dmMBgW5OX4fXP0UKc-3" value="" style="rounded=0;whiteSpace=wrap;html=1;fillColor=#0099CC;" vertex="1" parent="1">
          <mxGeometry x="160" y="120" width="40" height="40" as="geometry" />
        </mxCell>
        <mxCell id="lD7dmMBgW5OX4fXP0UKc-4" value="" style="rounded=0;whiteSpace=wrap;html=1;fillColor=#0099CC;" vertex="1" parent="1">
          <mxGeometry x="200" y="120" width="40" height="40" as="geometry" />
        </mxCell>
        <mxCell id="lD7dmMBgW5OX4fXP0UKc-5" value="" style="rounded=0;whiteSpace=wrap;html=1;fillColor=#0099CC;" vertex="1" parent="1">
          <mxGeometry x="240" y="120" width="40" height="40" as="geometry" />
        </mxCell>
        <mxCell id="lD7dmMBgW5OX4fXP0UKc-6" value="" style="rounded=0;whiteSpace=wrap;html=1;fillColor=#0099CC;" vertex="1" parent="1">
          <mxGeometry x="280" y="120" width="40" height="40" as="geometry" />
        </mxCell>
        <mxCell id="lD7dmMBgW5OX4fXP0UKc-7" value="" style="rounded=0;whiteSpace=wrap;html=1;fillColor=#0099CC;" vertex="1" parent="1">
          <mxGeometry x="320" y="120" width="40" height="40" as="geometry" />
        </mxCell>
        <mxCell id="lD7dmMBgW5OX4fXP0UKc-8" value="" style="rounded=0;whiteSpace=wrap;html=1;fillColor=#0099CC;" vertex="1" parent="1">
          <mxGeometry x="80" y="160" width="40" height="40" as="geometry" />
        </mxCell>
        <mxCell id="lD7dmMBgW5OX4fXP0UKc-9" value="" style="rounded=0;whiteSpace=wrap;html=1;fillColor=#0099CC;" vertex="1" parent="1">
          <mxGeometry x="120" y="160" width="40" height="40" as="geometry" />
        </mxCell>
        <mxCell id="lD7dmMBgW5OX4fXP0UKc-10" value="" style="rounded=0;whiteSpace=wrap;html=1;fillColor=none;" vertex="1" parent="1">
          <mxGeometry x="160" y="160" width="40" height="40" as="geometry" />
        </mxCell>
        <mxCell id="lD7dmMBgW5OX4fXP0UKc-11" value="" style="rounded=0;whiteSpace=wrap;html=1;fillColor=none;" vertex="1" parent="1">
          <mxGeometry x="200" y="160" width="40" height="40" as="geometry" />
        </mxCell>
        <mxCell id="lD7dmMBgW5OX4fXP0UKc-12" value="" style="rounded=0;whiteSpace=wrap;html=1;fillColor=none;" vertex="1" parent="1">
          <mxGeometry x="240" y="160" width="40" height="40" as="geometry" />
        </mxCell>
        <mxCell id="lD7dmMBgW5OX4fXP0UKc-13" value="" style="rounded=0;whiteSpace=wrap;html=1;fillColor=#0099CC;" vertex="1" parent="1">
          <mxGeometry x="280" y="160" width="40" height="40" as="geometry" />
        </mxCell>
        <mxCell id="lD7dmMBgW5OX4fXP0UKc-14" value="" style="rounded=0;whiteSpace=wrap;html=1;fillColor=#0099CC;" vertex="1" parent="1">
          <mxGeometry x="320" y="160" width="40" height="40" as="geometry" />
        </mxCell>
        <mxCell id="lD7dmMBgW5OX4fXP0UKc-15" value="" style="rounded=0;whiteSpace=wrap;html=1;fillColor=#0099CC;" vertex="1" parent="1">
          <mxGeometry x="80" y="200" width="40" height="40" as="geometry" />
        </mxCell>
        <mxCell id="lD7dmMBgW5OX4fXP0UKc-16" value="" style="rounded=0;whiteSpace=wrap;html=1;fillColor=#0099CC;" vertex="1" parent="1">
          <mxGeometry x="120" y="200" width="40" height="40" as="geometry" />
        </mxCell>
        <mxCell id="lD7dmMBgW5OX4fXP0UKc-17" value="" style="rounded=0;whiteSpace=wrap;html=1;fillColor=#0099CC;" vertex="1" parent="1">
          <mxGeometry x="160" y="200" width="40" height="40" as="geometry" />
        </mxCell>
        <mxCell id="lD7dmMBgW5OX4fXP0UKc-18" value="" style="rounded=0;whiteSpace=wrap;html=1;fillColor=#0099CC;" vertex="1" parent="1">
          <mxGeometry x="200" y="200" width="40" height="40" as="geometry" />
        </mxCell>
        <mxCell id="lD7dmMBgW5OX4fXP0UKc-19" value="" style="rounded=0;whiteSpace=wrap;html=1;fillColor=#0099CC;" vertex="1" parent="1">
          <mxGeometry x="240" y="200" width="40" height="40" as="geometry" />
        </mxCell>
        <mxCell id="lD7dmMBgW5OX4fXP0UKc-20" value="" style="rounded=0;whiteSpace=wrap;html=1;fillColor=#0099CC;" vertex="1" parent="1">
          <mxGeometry x="280" y="200" width="40" height="40" as="geometry" />
        </mxCell>
        <mxCell id="lD7dmMBgW5OX4fXP0UKc-21" value="" style="rounded=0;whiteSpace=wrap;html=1;fillColor=#0099CC;" vertex="1" parent="1">
          <mxGeometry x="320" y="200" width="40" height="40" as="geometry" />
        </mxCell>
        <mxCell id="lD7dmMBgW5OX4fXP0UKc-22" value="" style="rounded=0;whiteSpace=wrap;html=1;fillColor=#0099CC;" vertex="1" parent="1">
          <mxGeometry x="80" y="240" width="40" height="40" as="geometry" />
        </mxCell>
        <mxCell id="lD7dmMBgW5OX4fXP0UKc-23" value="" style="rounded=0;whiteSpace=wrap;html=1;fillColor=#0099CC;" vertex="1" parent="1">
          <mxGeometry x="120" y="240" width="40" height="40" as="geometry" />
        </mxCell>
        <mxCell id="lD7dmMBgW5OX4fXP0UKc-24" value="" style="rounded=0;whiteSpace=wrap;html=1;fillColor=#0099CC;" vertex="1" parent="1">
          <mxGeometry x="160" y="240" width="40" height="40" as="geometry" />
        </mxCell>
        <mxCell id="lD7dmMBgW5OX4fXP0UKc-25" value="" style="rounded=0;whiteSpace=wrap;html=1;fillColor=#0099CC;" vertex="1" parent="1">
          <mxGeometry x="200" y="240" width="40" height="40" as="geometry" />
        </mxCell>
        <mxCell id="lD7dmMBgW5OX4fXP0UKc-26" value="" style="rounded=0;whiteSpace=wrap;html=1;fillColor=#0099CC;" vertex="1" parent="1">
          <mxGeometry x="240" y="240" width="40" height="40" as="geometry" />
        </mxCell>
        <mxCell id="lD7dmMBgW5OX4fXP0UKc-27" value="" style="rounded=0;whiteSpace=wrap;html=1;fillColor=#0099CC;" vertex="1" parent="1">
          <mxGeometry x="280" y="240" width="40" height="40" as="geometry" />
        </mxCell>
        <mxCell id="lD7dmMBgW5OX4fXP0UKc-28" value="" style="rounded=0;whiteSpace=wrap;html=1;fillColor=#0099CC;" vertex="1" parent="1">
          <mxGeometry x="320" y="240" width="40" height="40" as="geometry" />
        </mxCell>
        <mxCell id="lD7dmMBgW5OX4fXP0UKc-29" value="" style="rounded=0;whiteSpace=wrap;html=1;fillColor=#0099CC;" vertex="1" parent="1">
          <mxGeometry x="80" y="360" width="40" height="40" as="geometry" />
        </mxCell>
        <mxCell id="lD7dmMBgW5OX4fXP0UKc-30" value="" style="rounded=0;whiteSpace=wrap;html=1;fillColor=#0099CC;" vertex="1" parent="1">
          <mxGeometry x="120" y="360" width="40" height="40" as="geometry" />
        </mxCell>
        <mxCell id="lD7dmMBgW5OX4fXP0UKc-31" value="" style="rounded=0;whiteSpace=wrap;html=1;fillColor=#0099CC;" vertex="1" parent="1">
          <mxGeometry x="160" y="360" width="40" height="40" as="geometry" />
        </mxCell>
        <mxCell id="lD7dmMBgW5OX4fXP0UKc-32" value="" style="rounded=0;whiteSpace=wrap;html=1;fillColor=#0099CC;" vertex="1" parent="1">
          <mxGeometry x="200" y="360" width="40" height="40" as="geometry" />
        </mxCell>
        <mxCell id="lD7dmMBgW5OX4fXP0UKc-33" value="" style="rounded=0;whiteSpace=wrap;html=1;fillColor=#0099CC;" vertex="1" parent="1">
          <mxGeometry x="240" y="360" width="40" height="40" as="geometry" />
        </mxCell>
        <mxCell id="lD7dmMBgW5OX4fXP0UKc-34" value="" style="rounded=0;whiteSpace=wrap;html=1;fillColor=#0099CC;" vertex="1" parent="1">
          <mxGeometry x="280" y="360" width="40" height="40" as="geometry" />
        </mxCell>
        <mxCell id="lD7dmMBgW5OX4fXP0UKc-36" value="" style="rounded=0;whiteSpace=wrap;html=1;fillColor=#0099CC;" vertex="1" parent="1">
          <mxGeometry x="80" y="400" width="40" height="40" as="geometry" />
        </mxCell>
        <mxCell id="lD7dmMBgW5OX4fXP0UKc-37" value="" style="rounded=0;whiteSpace=wrap;html=1;fillColor=#0099CC;" vertex="1" parent="1">
          <mxGeometry x="120" y="400" width="40" height="40" as="geometry" />
        </mxCell>
        <mxCell id="lD7dmMBgW5OX4fXP0UKc-38" value="" style="rounded=0;whiteSpace=wrap;html=1;fillColor=#0099CC;" vertex="1" parent="1">
          <mxGeometry x="160" y="400" width="40" height="40" as="geometry" />
        </mxCell>
        <mxCell id="lD7dmMBgW5OX4fXP0UKc-39" value="" style="rounded=0;whiteSpace=wrap;html=1;fillColor=#0099CC;" vertex="1" parent="1">
          <mxGeometry x="200" y="400" width="40" height="40" as="geometry" />
        </mxCell>
        <mxCell id="lD7dmMBgW5OX4fXP0UKc-40" value="" style="rounded=0;whiteSpace=wrap;html=1;fillColor=#0099CC;" vertex="1" parent="1">
          <mxGeometry x="240" y="400" width="40" height="40" as="geometry" />
        </mxCell>
        <mxCell id="lD7dmMBgW5OX4fXP0UKc-41" value="" style="rounded=0;whiteSpace=wrap;html=1;fillColor=#0099CC;" vertex="1" parent="1">
          <mxGeometry x="280" y="400" width="40" height="40" as="geometry" />
        </mxCell>
        <mxCell id="lD7dmMBgW5OX4fXP0UKc-43" value="" style="rounded=0;whiteSpace=wrap;html=1;fillColor=#0099CC;" vertex="1" parent="1">
          <mxGeometry x="80" y="440" width="40" height="40" as="geometry" />
        </mxCell>
        <mxCell id="lD7dmMBgW5OX4fXP0UKc-44" value="" style="rounded=0;whiteSpace=wrap;html=1;fillColor=#0099CC;" vertex="1" parent="1">
          <mxGeometry x="120" y="440" width="40" height="40" as="geometry" />
        </mxCell>
        <mxCell id="lD7dmMBgW5OX4fXP0UKc-45" value="" style="rounded=0;whiteSpace=wrap;html=1;fillColor=none;" vertex="1" parent="1">
          <mxGeometry x="160" y="440" width="40" height="40" as="geometry" />
        </mxCell>
        <mxCell id="lD7dmMBgW5OX4fXP0UKc-46" value="" style="rounded=0;whiteSpace=wrap;html=1;fillColor=none;" vertex="1" parent="1">
          <mxGeometry x="200" y="440" width="40" height="40" as="geometry" />
        </mxCell>
        <mxCell id="lD7dmMBgW5OX4fXP0UKc-47" value="" style="rounded=0;whiteSpace=wrap;html=1;fillColor=#0099CC;" vertex="1" parent="1">
          <mxGeometry x="240" y="440" width="40" height="40" as="geometry" />
        </mxCell>
        <mxCell id="lD7dmMBgW5OX4fXP0UKc-48" value="" style="rounded=0;whiteSpace=wrap;html=1;fillColor=#0099CC;" vertex="1" parent="1">
          <mxGeometry x="280" y="440" width="40" height="40" as="geometry" />
        </mxCell>
        <mxCell id="lD7dmMBgW5OX4fXP0UKc-50" value="" style="rounded=0;whiteSpace=wrap;html=1;fillColor=#0099CC;" vertex="1" parent="1">
          <mxGeometry x="80" y="480" width="40" height="40" as="geometry" />
        </mxCell>
        <mxCell id="lD7dmMBgW5OX4fXP0UKc-51" value="" style="rounded=0;whiteSpace=wrap;html=1;fillColor=#0099CC;" vertex="1" parent="1">
          <mxGeometry x="120" y="480" width="40" height="40" as="geometry" />
        </mxCell>
        <mxCell id="lD7dmMBgW5OX4fXP0UKc-52" value="" style="rounded=0;whiteSpace=wrap;html=1;fillColor=none;" vertex="1" parent="1">
          <mxGeometry x="160" y="480" width="40" height="40" as="geometry" />
        </mxCell>
        <mxCell id="lD7dmMBgW5OX4fXP0UKc-53" value="" style="rounded=0;whiteSpace=wrap;html=1;fillColor=none;" vertex="1" parent="1">
          <mxGeometry x="200" y="480" width="40" height="40" as="geometry" />
        </mxCell>
        <mxCell id="lD7dmMBgW5OX4fXP0UKc-54" value="" style="rounded=0;whiteSpace=wrap;html=1;fillColor=#0099CC;" vertex="1" parent="1">
          <mxGeometry x="240" y="480" width="40" height="40" as="geometry" />
        </mxCell>
        <mxCell id="lD7dmMBgW5OX4fXP0UKc-55" value="" style="rounded=0;whiteSpace=wrap;html=1;fillColor=#0099CC;" vertex="1" parent="1">
          <mxGeometry x="280" y="480" width="40" height="40" as="geometry" />
        </mxCell>
        <mxCell id="lD7dmMBgW5OX4fXP0UKc-57" value="" style="rounded=0;whiteSpace=wrap;html=1;fillColor=#0099CC;" vertex="1" parent="1">
          <mxGeometry x="80" y="520" width="40" height="40" as="geometry" />
        </mxCell>
        <mxCell id="lD7dmMBgW5OX4fXP0UKc-58" value="" style="rounded=0;whiteSpace=wrap;html=1;fillColor=#0099CC;" vertex="1" parent="1">
          <mxGeometry x="120" y="520" width="40" height="40" as="geometry" />
        </mxCell>
        <mxCell id="lD7dmMBgW5OX4fXP0UKc-59" value="" style="rounded=0;whiteSpace=wrap;html=1;fillColor=#0099CC;" vertex="1" parent="1">
          <mxGeometry x="160" y="520" width="40" height="40" as="geometry" />
        </mxCell>
        <mxCell id="lD7dmMBgW5OX4fXP0UKc-60" value="" style="rounded=0;whiteSpace=wrap;html=1;fillColor=#0099CC;" vertex="1" parent="1">
          <mxGeometry x="200" y="520" width="40" height="40" as="geometry" />
        </mxCell>
        <mxCell id="lD7dmMBgW5OX4fXP0UKc-61" value="" style="rounded=0;whiteSpace=wrap;html=1;fillColor=#0099CC;" vertex="1" parent="1">
          <mxGeometry x="240" y="520" width="40" height="40" as="geometry" />
        </mxCell>
        <mxCell id="lD7dmMBgW5OX4fXP0UKc-62" value="" style="rounded=0;whiteSpace=wrap;html=1;fillColor=#0099CC;" vertex="1" parent="1">
          <mxGeometry x="280" y="520" width="40" height="40" as="geometry" />
        </mxCell>
        <mxCell id="lD7dmMBgW5OX4fXP0UKc-64" value="" style="rounded=0;whiteSpace=wrap;html=1;fillColor=#0099CC;" vertex="1" parent="1">
          <mxGeometry x="80" y="560" width="40" height="40" as="geometry" />
        </mxCell>
        <mxCell id="lD7dmMBgW5OX4fXP0UKc-65" value="" style="rounded=0;whiteSpace=wrap;html=1;fillColor=#0099CC;" vertex="1" parent="1">
          <mxGeometry x="120" y="560" width="40" height="40" as="geometry" />
        </mxCell>
        <mxCell id="lD7dmMBgW5OX4fXP0UKc-66" value="" style="rounded=0;whiteSpace=wrap;html=1;fillColor=#0099CC;" vertex="1" parent="1">
          <mxGeometry x="160" y="560" width="40" height="40" as="geometry" />
        </mxCell>
        <mxCell id="lD7dmMBgW5OX4fXP0UKc-67" value="" style="rounded=0;whiteSpace=wrap;html=1;fillColor=#0099CC;" vertex="1" parent="1">
          <mxGeometry x="200" y="560" width="40" height="40" as="geometry" />
        </mxCell>
        <mxCell id="lD7dmMBgW5OX4fXP0UKc-68" value="" style="rounded=0;whiteSpace=wrap;html=1;fillColor=#0099CC;" vertex="1" parent="1">
          <mxGeometry x="240" y="560" width="40" height="40" as="geometry" />
        </mxCell>
        <mxCell id="lD7dmMBgW5OX4fXP0UKc-69" value="" style="rounded=0;whiteSpace=wrap;html=1;fillColor=#0099CC;" vertex="1" parent="1">
          <mxGeometry x="280" y="560" width="40" height="40" as="geometry" />
        </mxCell>
      </root>
    </mxGraphModel>
  </diagram>
</mxfile>
